<svg width="256" height="256" viewBox="0 0 256 256" fill="none" xmlns="http://www.w3.org/2000/svg">
<circle cx="128" cy="128" r="119.467" fill="#216C58" stroke="#216C58" stroke-width="4.26667"/>
<path d="M238.933 128C238.933 189.267 189.267 238.933 128 238.933C66.7332 238.933 17.0667 189.267 17.0667 128C17.0667 66.7332 66.7332 17.0667 128 17.0667C189.267 17.0667 238.933 66.7332 238.933 128Z" fill="#216C58"/>
<rect x="113.067" y="181.333" width="12.8" height="12.8" fill="#216C58"/>
<rect x="134.4" y="181.333" width="12.8" height="12.8" fill="#216C58"/>
<rect x="87.4666" y="49.0667" width="89.6" height="10.6667" rx="4.26667" fill="white"/>
<path d="M128 64L128 209.067C128 211.423 126.09 213.333 123.733 213.333L121.6 213.333C119.244 213.333 117.333 211.423 117.333 209.067L117.333 64L128 64Z" fill="white"/>
<path d="M145.067 64L145.067 209.067C145.067 211.423 143.156 213.333 140.8 213.333L138.667 213.333C136.31 213.333 134.4 211.423 134.4 209.067L134.4 64L145.067 64Z" fill="white"/>
<path d="M118.898 100.117L118.909 100.113L118.92 100.109C121.885 99.0245 125.628 98.4456 130.208 98.4456C136.949 98.4456 142.021 99.7384 145.628 102.103C148.233 103.81 149.943 105.958 150.867 108.558C151.793 111.165 154.181 113.693 157.532 113.693H177.24C180.737 113.693 183.898 110.759 183.363 106.934C182.539 101.038 180.313 95.7175 176.697 91.007C172.174 85.1148 165.887 80.5808 157.945 77.3551C150.024 74.1197 140.83 72.5334 130.41 72.5334C120.161 72.5334 110.934 74.1223 102.763 77.3463C94.6059 80.5647 88.0817 85.0854 83.2895 90.9571L83.2895 90.9571L83.283 90.9652C78.4851 96.9028 76.1149 103.86 76.1601 111.74C76.1152 121.396 79.7161 129.223 86.9724 134.994C94.0222 140.601 103.513 144.632 115.31 147.188C115.313 147.188 115.315 147.189 115.317 147.189L130.28 150.535L130.289 150.537L130.298 150.539C135.244 151.6 139.363 152.769 142.679 154.034L142.687 154.037C146.002 155.286 148.327 156.734 149.822 158.298L149.831 158.308L149.84 158.317C151.265 159.771 151.984 161.538 151.984 163.76C151.984 166.172 151.179 168.283 149.499 170.178C147.785 172.11 145.287 173.711 141.866 174.9L141.858 174.902C138.513 176.079 134.487 176.695 129.738 176.695C124.919 176.695 120.662 176.044 116.939 174.78C113.301 173.49 110.479 171.63 108.386 169.245C107.055 167.668 106.097 165.826 105.519 163.688C104.752 160.852 102.282 158.218 98.8536 158.218H79.0432C75.5053 158.218 72.4129 161.181 72.8494 164.962C73.6864 172.214 76.1068 178.527 80.1575 183.83L80.1627 183.837L80.1679 183.844C85.0611 190.146 91.8153 194.845 100.321 197.99L100.325 197.991C108.852 201.127 118.783 202.667 130.074 202.667C141.447 202.667 151.276 201.149 159.505 198.045L159.51 198.043C167.761 194.906 174.209 190.455 178.709 184.615C183.27 178.715 185.553 171.755 185.6 163.833L185.6 163.817L185.6 163.801C185.553 158.414 184.44 153.552 182.206 149.268C180.044 145.037 177 141.377 173.106 138.29C169.249 135.233 164.719 132.683 159.54 130.625C154.394 128.58 148.766 126.952 142.661 125.734L130.317 123.106L130.303 123.103L130.29 123.101C127.364 122.518 124.625 121.82 122.069 121.011C119.549 120.174 117.364 119.216 115.501 118.148C113.713 117.085 112.369 115.869 111.407 114.524C110.582 113.313 110.172 111.869 110.244 110.092L110.246 110.049V110.005C110.246 107.882 110.916 106.01 112.305 104.313C113.747 102.606 115.896 101.179 118.898 100.117Z" fill="white" stroke="#216C58" stroke-width="4.26667"/>
<rect x="117.333" y="91.7334" width="10.6667" height="14.9333" fill="white"/>
<rect x="117.333" y="145.067" width="10.6667" height="14.9333" fill="white"/>
<rect x="117.333" y="189.867" width="10.6667" height="14.9333" fill="white"/>
<rect x="134.4" y="91.7334" width="10.6667" height="14.9333" fill="white"/>
<rect x="134.4" y="145.067" width="10.6667" height="14.9333" fill="white"/>
<rect x="134.4" y="189.867" width="10.6667" height="14.9333" fill="white"/>
<path fill-rule="evenodd" clip-rule="evenodd" d="M235.359 134.4C233.664 134.4 232.266 135.727 232.115 137.416C227.355 190.736 182.559 232.533 128 232.533C73.4417 232.533 28.6454 190.736 23.8853 137.416C23.7346 135.727 22.3372 134.4 20.6418 134.4V134.4C18.7997 134.4 17.3327 135.956 17.4931 137.791C22.4497 194.472 70.0328 238.933 128 238.933C185.968 238.933 233.551 194.472 238.508 137.791C238.668 135.956 237.201 134.4 235.359 134.4V134.4ZM20.6418 121.6C22.3372 121.6 23.7346 120.273 23.8853 118.584C28.6454 65.2639 73.4417 23.4667 128 23.4667C182.559 23.4667 227.355 65.2639 232.115 118.584C232.266 120.273 233.664 121.6 235.359 121.6V121.6C237.201 121.6 238.668 120.044 238.508 118.209C233.551 61.5282 185.968 17.0667 128 17.0667C70.0327 17.0667 22.4497 61.5282 17.4931 118.209C17.3327 120.044 18.7997 121.6 20.6418 121.6V121.6Z" fill="white"/>
</svg>
