<svg xmlns="http://www.w3.org/2000/svg" width="20" height="20" viewBox="0 0 20 20">
  <defs>
    <style>
      .cls-1 {
        fill: #fafafa;
        stroke: #e4e4e4;
        stroke-width: 0.5px;
      }

      .cls-2 {
        fill: #002d8a;
      }

      .cls-3 {
        fill: #009ae0;
      }

      .cls-4 {
        stroke: none;
      }

      .cls-5 {
        fill: none;
      }
    </style>
  </defs>
  <g id="组_66178" data-name="组 66178" transform="translate(-41 -737)">
    <g id="组_66096" data-name="组 66096" transform="translate(40.748 737.333)">
      <g id="椭圆_4" data-name="椭圆 4" class="cls-1" transform="translate(0.252 -0.333)">
        <circle class="cls-4" cx="10" cy="10" r="10"/>
        <circle class="cls-5" cx="10" cy="10" r="9.75"/>
      </g>
    </g>
    <g id="组_66177" data-name="组 66177" transform="translate(-159.97 572.269)">
      <path id="路径_32590" data-name="路径 32590" class="cls-2" d="M205.634,168.61l-.4,2.675,2.317,1.846,1.017-1.584-2.3-1.073Z" transform="translate(0 0)"/>
      <path id="路径_32591" data-name="路径 32591" class="cls-2" d="M566.867,250.615v1.077l-.848.887,1.262.245.358-.962Z" transform="translate(-354.222 -80.515)"/>
      <path id="路径_32592" data-name="路径 32592" class="cls-3" d="M273.866,339.521l-1.584,2.562-.791,6.574,2.471-3.294,4.35-2.754.566-2.091Z" transform="translate(-65.048 -167.804)"/>
      <path id="路径_32593" data-name="路径 32593" class="cls-2" d="M296.968,570.252l2.366-3.137,3.081-1.9,4.347,5.034Z" transform="translate(-90.062 -389.399)"/>
    </g>
  </g>
</svg>
