<svg xmlns="http://www.w3.org/2000/svg" width="100.957" height="100.957" viewBox="0 0 100.957 100.957">
  <g id="组_66090" data-name="组 66090" transform="translate(-4201.75 768.25)">
    <g id="组_66089" data-name="组 66089" transform="translate(4202 -768)">
      <path id="路径_367" data-name="路径 367" d="M105.357,50.228A50.228,50.228,0,1,1,55.128,0a50.228,50.228,0,0,1,50.229,50.228" transform="translate(-4.9)" fill="#dddddf" stroke="#d5d6d5" stroke-width="0.5"/>
    </g>
    <path id="路径_52000" data-name="路径 52000" d="M383.974,278.4c5.634,0,10.205,1.492,13.727,4.668,3.522,3.08,5.275,7.306,5.275,12.581a17.01,17.01,0,0,1-3.342,10.731,89.331,89.331,0,0,1-7.388,6.863,14.882,14.882,0,0,0-3.7,4.571,11.836,11.836,0,0,0-1.409,5.814v1.491h-9.418v-1.491a17.5,17.5,0,0,1,1.754-8.355c1.146-2.458,4.488-6.076,9.943-10.91l1.492-1.671a10.278,10.278,0,0,0,2.458-6.422,10,10,0,0,0-2.555-7.209c-1.754-1.754-4.308-2.638-7.485-2.638-3.963,0-6.863,1.23-8.617,3.784q-2.383,3.17-2.375,8.976h-9.239c0-6.422,1.85-11.435,5.538-15.136C372.36,280.251,377.47,278.4,383.974,278.4ZM382.4,329.871a6.326,6.326,0,0,1,4.668,1.754,5.85,5.85,0,0,1,1.851,4.488,6.23,6.23,0,0,1-1.934,4.571,6.584,6.584,0,0,1-4.571,1.754,6.318,6.318,0,0,1-4.571-1.85,6.129,6.129,0,0,1-1.85-4.488,5.852,5.852,0,0,1,1.85-4.488A6.179,6.179,0,0,1,382.4,329.871Z" transform="translate(3868.208 -1029.657)" fill="#abaaad"/>
  </g>
</svg>
